# xmcd
#
# Track frame offsets: 
#        150
#        64975
#        87246
#        88238
#        89179
#        90041
#        94384
#        98703
#        104416
#        146419
#        189170
#        227408
#        253340
#        282035
#        311644
#        344250
#
# Disc length: 4745 seconds
#
# Revision: 1
# Processed by: cddbd v1.5.2PL0 Copyright (c) Steve Scherf et al.
# Submitted via: ExactAudioCopyFreeDBPlugin 1.0
#
DISCID=d9128710
DTITLE=Plastikman - Arkives 1993 - 2010 [CD7 | Sessions)
DYEAR=2011
DGENRE=Techno
TTITLE0=Part 1
TTITLE1=Part 2
TTITLE2=Clap Break
TTITLE3=Snares and Claps
TTITLE4=Snare Outtakes
TTITLE5=Rides
TTITLE6=Rides and Snares
TTITLE7=Ending Effects
TTITLE8=Spastik (Original Version)
TTITLE9=Spastik (Dubfire Rework)
TTITLE10=PP001
TTITLE11=Dubfunk
TTITLE12=Helikopter
TTITLE13=Manik
TTITLE14=Live at Spastik (Slak and Kriket)
TTITLE15=Live at Transcendance (Spastik)
EXTD=
EXTT0=
EXTT1=
EXTT2=
EXTT3=
EXTT4=
EXTT5=
EXTT6=
EXTT7=
EXTT8=
EXTT9=
EXTT10=
EXTT11=
EXTT12=
EXTT13=
EXTT14=
EXTT15=
PLAYORDER=
